<?xml version="1.0" encoding="utf-8"?>
<!-- Generator: Adobe Illustrator 22.0.1, SVG Export Plug-In . SVG Version: 6.00 Build 0)  -->
<svg version="1.1" id="Layer_1" xmlns="http://www.w3.org/2000/svg" xmlns:xlink="http://www.w3.org/1999/xlink" x="0px" y="0px"
	 viewBox="0 0 255.4 342.8" style="enable-background:new 0 0 255.4 342.8;" xml:space="preserve">
<style type="text/css">
	.st0{display:none;}
	.st1{fill:#FFFFFF;}
	.st2{fill:#79C79C;}
	.st3{display:inline;fill:#79C79C;}
</style>
<path class="st0" d="M297.9,274.1L297.9,274.1c-8,9.1-21.8,9.9-30.9,1.9l-99.8-88.2c-9.1-8-9.9-21.8-1.9-30.9l0,0
	c8-9.1,21.8-9.9,30.9-1.9l99.8,88.2C305.1,251.3,305.9,265.1,297.9,274.1z"/>
<rect x="-535" y="-190.4" class="st1" width="1314" height="1268"/>
<g>
	<g>
		<path class="st2" d="M144,113.8h-32.2V75H144V113.8z M144,291.9h-32.2v-38.8H144V291.9z"/>
		<g>
			<path class="st2" d="M93.8,27.9H38.7v287h55.1v17.3H10.5V10.6h83.3V27.9z"/>
			<path class="st2" d="M244.9,332.1h-83.3v-17.3h55.1v-287h-55.1V10.6h83.3V332.1z"/>
		</g>
	</g>
	<g class="st0">
		<path class="st3" d="M161.4,527.3c-3.3-2.5-6.9-3.7-10.8-3.7l-8.2,8.2l-0.6,42.4c9.3,4.2,17.8,7.1,25.6,8.6
			c3.4-7.8,5.1-17.3,5.1-28.5c0-6.3-1-11.7-3.1-16.4C167.5,533.3,164.8,529.7,161.4,527.3z"/>
		<path class="st3" d="M49.5,571.5c0,4.1,0.8,7.1,2.5,9.1c1.6,2,3.6,3,5.9,3c2.2,0,4.7-0.8,7.6-2.5l-0.2-4.3l0.2-4.5l0.6-11.7
			l-15.8,3.7C49.8,566.1,49.5,568.5,49.5,571.5z"/>
		<polygon class="st3" points="-152,546.7 -121.1,546.7 -139.1,482.6 		"/>
		<path class="st3" d="M-250.6,412.3v224.3h756.7V412.3H-250.6z M220.5,459.9l26.2-5.9v23.3l-26.2,3.9V459.9z M-57.8,595.3h-61.6
			v-7.2l10-0.2l-9.4-33.6h-34.8l-6.8,33.6l10.4,0.2v7.2h-46.3v-7.2l10-0.2l45.9-128.2l25.4-3.5l47.1,131.7l10,0.2v7.2H-57.8z
			 M3.2,527.5c-6.1-0.7-11.2-1.2-15.2-1.4l-4.1,5.1l-0.8,57.5l18.2,0.6v5.9h-54.7v-5.9l7.6-0.6l-0.6-73.3l-7.8,1.8l-2-6.1l32.4-10
			l7,21.9c4.5-9.1,9.4-16.2,14.7-21.3c3-1.1,6.6-1.6,10.9-1.6c5.7,0,11.1,1,16.2,3.1l-6.6,26.6C14.4,528.9,9.4,528.2,3.2,527.5z
			 M74.3,598.7c-3.7-2.6-6.2-6.1-7.6-10.6c-4.9,3-9.9,5.5-14.8,7.4c-5,1.9-9.3,2.9-13,2.9c-5.6,0-10.2-2-13.7-5.9
			c-3.6-4-5.3-9-5.3-15.2c0-2.7,0.3-5.7,0.9-8.9s1.4-5.8,2.4-7.7l43.4-7l0.4-5.9c0.3-6.1-1-11-3.9-14.4c-2.9-3.5-7.5-5.2-13.9-5.2
			c-2.9,0-5.9,0.3-9,0.9c-3.1,0.6-5.8,1.4-8,2.4l-3.3,7l-5.5-2l9.4-29.5c10.5-4.5,20.5-6.8,29.9-6.8c9.7,0,17.6,2.6,23.8,7.7
			c6.1,5.1,9.2,13.1,9.2,24.1l-0.2,4.1l-2,27.6l-0.4,7.4c0,2.5,0.2,4.4,0.6,5.8c0.4,1.4,1.1,2.9,2,4.4l6.3-2.5l2.5,5.9L74.3,598.7z
			 M198.6,564.1c-2.3,7.8-5.1,13.9-8.4,18.2c-2.6,3.7-7.3,7.3-14.1,10.8s-12.6,5.2-17.2,5.2c-6.1,0-14.1-1.1-24-3.4
			c-9.8-2.3-17.1-4.7-21.9-7.3L112.4,466l-7.8,1.6l-2-5.9l37.9-11.5l2.9,4.9l-0.8,67.4l19.2-22.5c7.9,0,14.9,1.8,21,5.4
			c6.1,3.6,10.8,8.6,14.2,14.9c3.4,6.3,5.1,13.5,5.1,21.6C202.1,549,200.9,556.3,198.6,564.1z M256.3,595.3h-44v-5.9l7.6-0.6
			l-0.6-72.9l-7.8,1.6l-2-5.9l37.1-11.5l2.9,4.9l-0.6,83.8l7.6,0.6v5.9H256.3z M317.6,598.7c-3.7-2.6-6.2-6.1-7.6-10.6
			c-4.9,3-9.9,5.5-14.8,7.4c-5,1.9-9.3,2.9-13,2.9c-5.6,0-10.2-2-13.7-5.9c-3.6-4-5.3-9-5.3-15.2c0-2.7,0.3-5.7,0.9-8.9
			c0.6-3.2,1.4-5.8,2.4-7.7l43.4-7l0.4-5.9c0.3-6.1-1-11-3.9-14.4c-2.9-3.5-7.5-5.2-13.9-5.2c-2.9,0-5.9,0.3-9,0.9
			c-3.1,0.6-5.8,1.4-8,2.4l-3.3,7l-5.5-2l9.4-29.5c10.5-4.5,20.5-6.8,29.9-6.8c9.7,0,17.6,2.6,23.8,7.7c6.1,5.1,9.2,13.1,9.2,24.1
			l-0.2,4.1l-2,27.6l-0.4,7.4c0,2.5,0.2,4.4,0.6,5.8c0.4,1.4,1.1,2.9,2,4.4l6.3-2.5l2.5,5.9L317.6,598.7z M451.7,595.3h-43.8v-5.9
			l7.6-0.6v-43.2c0-6-1.7-10.6-5-13.9c-3.3-3.3-8-5-13.8-5.1l-6.6,6.8l-0.8,55.5l7.6,0.6v5.9h-44v-5.9l7.6-0.6l-0.6-73.3l-7.8,1.8
			l-2-6.1l32.4-10l7.2,22.9l17-24.4c13,0,22.5,3.1,28.7,9.2s9.2,15.6,9.2,28.5v51.4l7.4,0.6v5.8H451.7z"/>
		<path class="st3" d="M292.8,571.5c0,4.1,0.8,7.1,2.5,9.1c1.6,2,3.6,3,5.9,3c2.2,0,4.7-0.8,7.6-2.5l-0.2-4.3l0.2-4.5l0.6-11.7
			l-15.8,3.7C293,566.1,292.8,568.5,292.8,571.5z"/>
	</g>
</g>
</svg>
